<?xml version="1.0" standalone="no"?>
<!DOCTYPE svg PUBLIC "-//W3C//DTD SVG 20010904//EN"
 "http://www.w3.org/TR/2001/REC-SVG-20010904/DTD/svg10.dtd">
<svg version="1.0" xmlns="http://www.w3.org/2000/svg"
 width="260.000000pt" height="260.000000pt" viewBox="0 0 260.000000 260.000000"
 preserveAspectRatio="xMidYMid meet">
<metadata>
Created by potrace 1.14, written by Peter Selinger 2001-2017
</metadata>
<g transform="translate(0.000000,260.000000) scale(0.100000,-0.100000)"
fill="#000000" stroke="none">
<path d="M425 1654 c-114 -37 -206 -127 -244 -241 -66 -197 38 -406 236 -472
182 -61 374 22 455 195 114 243 -51 516 -320 530 -53 3 -93 -1 -127 -12z"/>
<path d="M1137 1393 c-4 -3 -7 -44 -7 -90 l0 -83 50 0 c28 0 50 5 50 10 0 6
-18 10 -39 10 l-40 0 0 76 c0 77 -2 89 -14 77z"/>
<path d="M1749 1378 c-1 -13 -2 -53 -3 -89 l-1 -67 42 0 c26 -1 48 5 58 14 17
18 20 66 5 95 -12 21 -59 26 -76 9 -7 -7 -9 -2 -6 19 2 16 -1 32 -7 35 -7 5
-11 -2 -12 -16z m75 -54 c25 -24 21 -73 -6 -83 -31 -12 -48 4 -48 45 0 27 16
50 37 54 1 0 9 -7 17 -16z"/>
<path d="M2395 1359 c2 -22 0 -28 -8 -20 -30 30 -87 -3 -87 -50 0 -45 26 -69
73 -67 l42 2 0 83 c1 57 -3 83 -11 83 -7 0 -10 -13 -9 -31z m-5 -55 c13 -34
-4 -66 -32 -62 -28 4 -42 29 -34 61 9 37 52 38 66 1z"/>
<path d="M1287 1332 c-38 -42 -9 -112 46 -112 50 0 72 73 35 117 -15 19 -62
16 -81 -5z m79 -38 c12 -46 -42 -78 -68 -40 -24 34 10 93 43 75 10 -5 22 -21
25 -35z"/>
<path d="M1436 1322 c-16 -33 -13 -57 10 -83 20 -22 44 -24 63 -6 10 10 12 7
9 -13 -2 -20 -9 -26 -35 -28 -20 -2 -33 1 -33 8 0 6 -5 8 -10 5 -17 -11 9 -35
37 -35 54 0 63 14 63 98 l0 78 -45 2 c-40 1 -46 -2 -59 -26z m80 -19 c9 -33
-7 -58 -36 -58 -27 0 -41 30 -29 63 12 33 57 30 65 -5z"/>
<path d="M1601 1331 c-14 -14 -18 -29 -16 -51 6 -43 22 -60 56 -60 37 0 59 24
59 65 0 60 -58 87 -99 46z m73 -17 c10 -27 7 -52 -10 -68 -31 -32 -77 21 -54
64 13 24 55 27 64 4z"/>
<path d="M1905 1287 c0 -65 19 -80 21 -17 2 57 3 60 24 60 11 0 20 4 20 9 0 5
-15 9 -33 9 l-33 0 1 -61z"/>
<path d="M2015 1339 c-11 -16 1 -22 23 -10 14 7 24 7 38 -4 18 -13 18 -14 -9
-24 -16 -6 -35 -11 -43 -11 -20 0 -30 -29 -17 -49 12 -19 92 -25 94 -7 11 91
1 116 -45 116 -19 0 -38 -5 -41 -11z m70 -68 c7 -13 -34 -41 -51 -34 -17 6
-18 30 -1 36 20 9 45 8 52 -2z"/>
<path d="M2154 1283 c0 -39 4 -63 10 -63 7 0 11 18 10 43 -1 53 3 64 27 70 15
4 23 -1 30 -20 5 -14 9 -30 8 -37 -4 -31 2 -57 11 -51 14 9 10 103 -5 115 -7
6 -30 9 -52 8 l-39 -1 0 -64z"/>
</g>
</svg>
